<?xml version="1.0" standalone="no"?>
<!DOCTYPE svg PUBLIC "-//W3C//DTD SVG 20010904//EN"
 "http://www.w3.org/TR/2001/REC-SVG-20010904/DTD/svg10.dtd">
<svg version="1.0" xmlns="http://www.w3.org/2000/svg"
 width="400.000000pt" height="116.000000pt" viewBox="0 0 400.000000 116.000000"
 preserveAspectRatio="xMidYMid meet">

<g transform="translate(0.000000,116.000000) scale(0.100000,-0.100000)"
fill="#000000" stroke="none">
<path d="M522 1033 c-42 -20 -62 -59 -62 -118 l0 -45 -94 0 c-52 0 -106 -4
-120 -10 -41 -15 -56 -58 -56 -160 l0 -90 50 0 c63 0 95 -15 121 -57 31 -50
21 -108 -25 -150 -31 -29 -43 -33 -91 -33 l-55 0 0 -85 c0 -151 24 -175 176
-175 l84 0 0 56 c0 52 3 59 39 95 43 44 88 51 141 24 39 -20 53 -48 60 -115
l5 -55 75 -3 c153 -7 180 19 180 173 l0 95 45 0 c61 0 98 21 120 66 37 79 -20
154 -117 154 l-48 0 0 104 c0 96 -2 107 -24 133 -23 27 -28 28 -135 31 l-111
4 0 44 c0 59 -23 102 -65 120 -43 18 -52 17 -93 -3z m228 -618 c-35 -35 -67
-62 -72 -59 -17 11 -6 31 39 74 48 46 42 31 -11 -29 -46 -50 -1 -23 54 33 24
25 46 46 49 46 3 0 -23 -29 -59 -65z m125 -5 c-54 -55 -75 -65 -75 -37 0 14
60 77 74 77 6 0 -8 -18 -29 -40 -21 -22 -35 -40 -29 -40 5 0 32 23 59 50 27
28 52 50 54 50 3 0 -21 -27 -54 -60z"/>
<path d="M1740 666 l0 -53 -40 10 c-48 13 -99 -7 -127 -50 -23 -35 -23 -112 1
-148 26 -39 82 -60 129 -48 20 6 37 6 37 2 0 -5 23 -9 50 -9 l50 0 0 175 0
175 -50 0 -50 0 0 -54z m-6 -149 c7 -19 7 -34 0 -45 -25 -39 -74 -20 -74 27 0
55 57 69 74 18z"/>
<path d="M3320 545 l0 -175 50 0 50 0 0 58 c0 74 8 100 32 107 35 12 48 -12
48 -91 l0 -74 50 0 50 0 0 85 c0 50 -6 99 -14 119 -18 44 -64 63 -117 49 l-39
-10 0 53 0 54 -55 0 -55 0 0 -175z"/>
<path d="M1974 692 c-98 -46 -129 -164 -67 -258 47 -73 218 -85 273 -19 13 16
11 20 -18 46 l-33 30 -26 -21 c-29 -23 -42 -24 -76 -9 -50 23 -62 95 -22 134
29 30 73 33 101 6 20 -18 21 -18 53 11 38 34 35 50 -10 73 -50 26 -127 29
-175 7z"/>
<path d="M2850 650 c0 -20 -5 -30 -15 -30 -11 0 -15 -11 -15 -40 0 -28 4 -40
14 -40 18 0 26 -22 26 -74 0 -55 31 -87 92 -93 56 -5 72 6 63 45 -4 21 -13 32
-28 34 -18 2 -23 11 -25 46 -3 39 -1 42 22 42 24 0 26 4 26 40 0 36 -2 40 -25
40 -21 0 -25 5 -25 30 0 30 -1 30 -55 30 -54 0 -55 0 -55 -30z"/>
<path d="M1308 619 c-41 -12 -43 -16 -27 -53 11 -23 16 -25 54 -19 24 3 51 1
61 -6 16 -9 13 -11 -21 -11 -69 -2 -108 -21 -119 -58 -7 -27 -6 -38 11 -60 27
-37 81 -50 122 -29 26 13 31 13 31 1 0 -10 13 -14 45 -14 l45 0 0 84 c0 97 -9
128 -43 151 -31 20 -111 27 -159 14z m100 -155 c-5 -25 -35 -41 -49 -27 -18
18 -3 43 26 43 19 0 26 -5 23 -16z"/>
<path d="M2268 619 c-41 -12 -43 -16 -27 -53 11 -23 16 -25 54 -19 24 3 51 1
61 -6 16 -9 13 -11 -21 -11 -69 -2 -108 -21 -119 -58 -7 -27 -6 -38 11 -60 27
-37 81 -50 122 -29 26 13 31 13 31 1 0 -10 13 -14 45 -14 l45 0 0 84 c0 97 -9
128 -43 151 -31 20 -111 27 -159 14z m100 -155 c-5 -25 -35 -41 -49 -27 -18
18 -3 43 26 43 19 0 26 -5 23 -16z"/>
<path d="M2510 455 l0 -175 50 0 50 0 0 56 c0 50 2 55 18 48 9 -5 36 -8 60 -8
34 0 48 6 75 32 29 29 32 38 32 92 0 51 -4 63 -29 89 -34 35 -82 48 -126 33
-18 -7 -30 -7 -30 -1 0 5 -22 9 -50 9 l-50 0 0 -175z m174 79 c9 -8 16 -24 16
-34 0 -22 -25 -50 -45 -50 -19 0 -45 28 -45 47 0 20 29 53 46 53 7 0 20 -7 28
-16z"/>
<path d="M3104 611 c-97 -44 -97 -174 0 -221 23 -11 55 -20 69 -20 40 0 92 24
111 51 16 23 15 24 -20 42 -34 17 -37 17 -55 2 -44 -41 -104 21 -64 65 22 24
43 25 65 5 16 -14 21 -14 54 1 20 10 36 21 36 24 0 12 -45 49 -73 59 -41 16
-76 13 -123 -8z"/>
<path d="M3688 619 c-41 -12 -43 -16 -27 -53 11 -23 16 -25 54 -19 24 3 51 1
61 -6 16 -9 13 -11 -21 -11 -69 -2 -108 -21 -119 -58 -7 -27 -6 -38 11 -60 27
-37 81 -50 122 -29 26 13 31 13 31 1 0 -10 13 -14 45 -14 l45 0 0 84 c0 97 -9
128 -43 151 -31 20 -111 27 -159 14z m100 -155 c-5 -25 -35 -41 -49 -27 -18
18 -3 43 26 43 19 0 26 -5 23 -16z"/>
</g>
</svg>
